<?xml version="1.0" encoding="UTF-8"?>
<svg id="Layer_1" data-name="Layer 1" xmlns="http://www.w3.org/2000/svg" width="377.998054720472282" height="94.95703125" viewBox="0 0 377.998054720472282 94.95703125">
  <defs>
    <style>
      .cls-1 {
        fill: #fff;
      }

      .cls-2 {
        fill: #00ff6a;
      }
    </style>
  </defs>
  <path class="cls-2" d="M32.479470117626079,94.95703125h-.00048828125c-3.51123046875-.00048828125-6.63720703125-1.96630859375-8.15771484375-5.130859375l-4.2548828125-8.849609375c-1.07666015625-2.23974609375-.1337890625-4.9287109375,2.10595703125-6.00537109375,2.240234375-1.0771484375,4.9287109375-.1337890625,6.00537109375,2.10595703125l4.2548828125,8.85009765625,22.4228515625-46.4765625c1.93115234375-6.14306640625-1.76025390625-10.05517578125-5.5087890625-11.53662109375-3.75244140625-1.48291015625-9.1279296875-1.15234375-11.923828125,4.66259765625l-10.7001953125,22.25390625c-1.79296875,3.72802734375-5.4765625,6.04443359375-9.61328125,6.04443359375h-.0009765625c-4.13720703125-.00048828125-7.82080078125-2.31689453125-9.61328125-6.0458984375l-5.603515625-11.65625c-.08349609375-.17431640625-.15625-.353515625-.216796875-.53662109375C-1.634787694873921,32.62841796875.008278711376079,21.98828125,6.182106836376079,13.44384765625,12.355446680126079,4.89990234375,21.940407617626079,0,32.479470117626079,0c2.4853515625,0,4.5,2.0146484375,4.5,4.5s-2.0146484375,4.5-4.5,4.5c-7.615234375,0-14.54150390625,3.541015625-19.00244140625,9.71484375-4.4072265625,6.099609375-5.61962890625,13.67626953125-3.34326171875,20.8310546875l5.47265625,11.3837890625c.3955078125.822265625,1.111328125.9453125,1.50244140625.9453125h.00048828125c.39111328125,0,1.10693359375-.123046875,1.501953125-.94482421875l10.7001953125-22.25390625c5.0966796875-10.599609375,15.67236328125-12.1650390625,23.34375-9.13232421875,7.66552734375,3.02978515625,14.3095703125,11.39794921875,10.7841796875,22.611328125l-.154296875.4775390625c-.060546875.1845703125-.1337890625.36474609375-.2177734375.5400390625l-22.42919921875,46.65380859375c-1.521484375,3.16455078125-4.6474609375,5.13037109375-8.15869140625,5.13037109375Z"/>
  <g>
    <path class="cls-1" d="M105.951912142347282,42.986369334827032l-7.649658203125-2.46051025390625c-1.213134765625-.39239501953125-2.123046875-.9364013671875-2.728759765625-1.632080078125-.6064453125-.6956787109375-.908935546875-1.506103515625-.908935546875-2.4339599609375,0-.8558349609375.2314453125-1.61322021484375.69482421875-2.27374267578125.46337890625-.65966796875,1.1240234375-1.167724609375,1.97998046875-1.52496337890625.855712890625-.35552978515625,1.8359375-.53460693359375,2.94189453125-.53460693359375,1.92578125,0,3.6376953125.52685546875,5.13623046875,1.57806396484375,1.49755859375,1.05206298828125,2.62158203125,2.50592041015625,3.3701171875,4.35992431640625l6.74072265625-3.04913330078125c-.74951171875-2.1041259765625-1.8642578125-3.90582275390625-3.34375-5.40338134765625-1.48046875-1.49755859375-3.23681640625-2.65667724609375-5.26953125-3.4774169921875-2.033203125-.81988525390625-4.244384765625-1.23028564453125-6.6337890625-1.23028564453125-2.710693359375,0-5.108642578125.49945068359375-7.19580078125,1.49755859375-2.0859375.99896240234375-3.70947265625,2.3902587890625-4.86767578125,4.17315673828125-1.1591796875,1.78369140625-1.73828125,3.851806640625-1.73828125,6.20526123046875,0,2.675537109375.8017578125,4.96728515625,2.4072265625,6.875244140625,1.604736328125,1.90789794921875,3.9931640625,3.37890625,7.168212890625,4.4129638671875l7.810791015625,2.567626953125c1.21240234375.39324951171875,2.104248046875.91925048828125,2.6748046875,1.5789794921875.570556640625.65966796875.85595703125,1.4530029296875.85595703125,2.37994384765625,0,.85589599609375-.232421875,1.59698486328125-.69580078125,2.22064208984375-.46337890625.62457275390625-1.105224609375,1.1146240234375-1.92578125,1.47100830078125-.82080078125.35723876953125-1.801025390625.53460693359375-2.942138671875.53460693359375-2.14013671875,0-4.092529296875-.62286376953125-5.858154296875-1.8719482421875-1.76513671875-1.24822998046875-3.147705078125-2.96002197265625-4.145751953125-5.1361083984375l-6.7939453125,3.04998779296875c.783935546875,2.28228759765625,1.969482421875,4.26220703125,3.55712890625,5.93798828125,1.586669921875,1.67657470703125,3.4775390625,2.968505859375,5.670654296875,3.87835693359375,2.193359375.90985107421875,4.5380859375,1.36395263671875,7.035400390625,1.36395263671875,2.817138671875,0,5.286865234375-.508056640625,7.408935546875-1.52410888671875,2.121337890625-1.0169677734375,3.78955078125-2.4254150390625,5.00244140625-4.22625732421875,1.21142578125-1.80084228515625,1.81884765625-3.86041259765625,1.81884765625-6.1795654296875,0-2.67474365234375-.7939453125-4.93902587890625-2.380859375-6.79388427734375-1.58740234375-1.85394287109375-3.9853515625-3.29840087890625-7.195556640625-4.33331298828125Z"/>
    <polygon class="cls-1" points="154.607185579847282 36.192546092639532 148.924568392347282 53.153483592639532 142.623298861097282 36.192546092639532 135.669197298597282 36.192546092639532 129.318855501722282 53.168070994983282 123.632332064222282 36.192546092639532 115.339851595472282 36.192546092639532 125.396980501722282 65.401774608264532 132.352058626722282 65.401774608264532 139.141609407972282 46.675151073108282 145.886482454847282 65.401774608264532 152.841560579847282 65.401774608264532 162.952644564222282 36.192546092639532 154.607185579847282 36.192546092639532"/>
    <path class="cls-1" d="M186.217781282972282,39.723124705920782c-1.230224609375-1.31939697265625-2.7373046875-2.34490966796875-4.52001953125-3.0765380859375-1.78369140625-.72991943359375-3.834716796875-1.09661865234375-6.152099609375-1.09661865234375-2.781982421875,0-5.279052734375.6605224609375-7.489501953125,1.97991943359375-2.212158203125,1.3193359375-3.96826171875,3.12103271484375-5.269775390625,5.40338134765625-1.30224609375,2.28228759765625-1.952392578125,4.88592529296875-1.952392578125,7.8099365234375,0,2.8177490234375.62353515625,5.38623046875,1.871826171875,7.70367431640625,1.248291015625,2.31915283203125,3.013916015625,4.16455078125,5.29638671875,5.53704833984375,2.2822265625,1.373291015625,4.974853515625,2.0595703125,8.077880859375,2.0595703125,1.9970703125,0,3.833984375-.29388427734375,5.5107421875-.8824462890625,1.675537109375-.58856201171875,3.12939453125-1.41790771484375,4.35986328125-2.4879150390625,1.230224609375-1.070068359375,2.130615234375-2.31744384765625,2.7021484375-3.7447509765625l-6.42041015625-3.04913330078125c-.570556640625.99896240234375-1.364013671875,1.78369140625-2.380859375,2.35430908203125-1.01611328125.570556640625-2.23779296875.8558349609375-3.664306640625.8558349609375-1.569580078125,0-2.906982421875-.3477783203125-4.011962890625-1.04345703125-1.10595703125-.6956787109375-1.926025390625-1.66717529296875-2.46142578125-2.91546630859375-.275390625-.6429443359375-.457275390625-1.34002685546875-.552978515625-2.08697509765625h20.454833984375c.141357421875-.39154052734375.23974609375-.86358642578125.293701171875-1.41705322265625.05322265625-.55255126953125.08056640625-1.11456298828125.08056640625-1.6851806640625,0-2.03302001953125-.3212890625-3.91351318359375-.962890625-5.64410400390625-.642578125-1.729736328125-1.578125-3.25384521484375-2.809326171875-4.57403564453125ZM169.372566439222282,47.159465037952032c.092041015625-.41278076171875.201904296875-.808837890625.34130859375-1.1771240234375.49951171875-1.3193359375,1.248291015625-2.31829833984375,2.2470703125-2.9959716796875.998291015625-.67681884765625,2.193359375-1.01605224609375,3.584716796875-1.01605224609375,1.425537109375,0,2.629150390625.346923828125,3.611083984375,1.0426025390625.97998046875.6956787109375,1.666259765625,1.640625,2.0595703125,2.83575439453125.1357421875.41412353515625.2099609375.85614013671875.255859375,1.310791015625h-12.099609375Z"/>
    <path class="cls-1" d="M215.801521517347282,39.723124705920782c-1.230224609375-1.31939697265625-2.7373046875-2.34490966796875-4.52001953125-3.0765380859375-1.78369140625-.72991943359375-3.834716796875-1.09661865234375-6.152099609375-1.09661865234375-2.781982421875,0-5.279296875.6605224609375-7.48974609375,1.97991943359375-2.2119140625,1.3193359375-3.96826171875,3.12103271484375-5.26953125,5.40338134765625-1.30224609375,2.28228759765625-1.95263671875,4.88592529296875-1.95263671875,7.8099365234375,0,2.8177490234375.623779296875,5.38623046875,1.8720703125,7.70367431640625,1.248046875,2.31915283203125,3.013916015625,4.16455078125,5.296142578125,5.53704833984375,2.282470703125,1.373291015625,4.97509765625,2.0595703125,8.078125,2.0595703125,1.9970703125,0,3.833984375-.29388427734375,5.510498046875-.8824462890625,1.67578125-.58856201171875,3.129638671875-1.41790771484375,4.35986328125-2.4879150390625,1.230224609375-1.070068359375,2.130859375-2.31744384765625,2.7021484375-3.7447509765625l-6.42041015625-3.04913330078125c-.570556640625.99896240234375-1.36376953125,1.78369140625-2.380859375,2.35430908203125-1.015869140625.570556640625-2.23779296875.8558349609375-3.6640625.8558349609375-1.569580078125,0-2.906982421875-.3477783203125-4.01220703125-1.04345703125-1.10595703125-.6956787109375-1.92578125-1.66717529296875-2.461181640625-2.91546630859375-.275634765625-.6429443359375-.457275390625-1.34002685546875-.552978515625-2.08697509765625h20.45458984375c.141357421875-.39154052734375.239990234375-.86358642578125.2939453125-1.41705322265625.05322265625-.55255126953125.08056640625-1.11456298828125.08056640625-1.6851806640625,0-2.03302001953125-.3212890625-3.91351318359375-.962890625-5.64410400390625-.642578125-1.729736328125-1.578125-3.25384521484375-2.809326171875-4.57403564453125ZM198.956062532972282,47.159465037952032c.09228515625-.41278076171875.2021484375-.808837890625.341552734375-1.1771240234375.499267578125-1.3193359375,1.248291015625-2.31829833984375,2.2470703125-2.9959716796875.998046875-.67681884765625,2.193115234375-1.01605224609375,3.584716796875-1.01605224609375,1.425537109375,0,2.629150390625.346923828125,3.61083984375,1.0426025390625.980224609375.6956787109375,1.66650390625,1.640625,2.0595703125,2.83575439453125.135986328125.41412353515625.2099609375.85614013671875.255859375,1.310791015625h-12.099609375Z"/>
    <path class="cls-1" d="M245.332039095472282,37.582987987170782c-2.246337890625-1.3544921875-4.7607421875-2.03302001953125-7.54248046875-2.03302001953125-2.14013671875,0-4.03955078125.40179443359375-5.6982421875,1.2037353515625-1.29150390625.6253662109375-2.36572265625,1.45745849609375-3.23583984375,2.48297119140625v-3.04412841796875h-7.490234375v39.908935546875h8.02490234375v-12.9798583984375c.80859375.74285888671875,1.73486328125,1.362060546875,2.808349609375,1.82525634765625,1.693603515625.73077392578125,3.5390625,1.09661865234375,5.536865234375,1.09661865234375,2.85302734375,0,5.403564453125-.67681884765625,7.650634765625-2.03302001953125,2.246337890625-1.3544921875,4.020751953125-3.19134521484375,5.322998046875-5.5096435546875,1.30126953125-2.31829833984375,1.952392578125-4.88592529296875,1.952392578125-7.70367431640625,0-2.8529052734375-.66064453125-5.429931640625-1.97900390625-7.730224609375-1.3203125-2.30035400390625-3.103271484375-4.12774658203125-5.350341796875-5.48394775390625ZM243.406257845472282,54.969401561389532c-.641845703125,1.213134765625-1.53369140625,2.15899658203125-2.6748046875,2.8358154296875-1.14208984375.6776123046875-2.46044921875,1.01605224609375-3.958984375,1.01605224609375-1.42626953125,0-2.701171875-.33843994140625-3.824462890625-1.01605224609375-1.1240234375-.67681884765625-1.997802734375-1.6226806640625-2.62158203125-2.8358154296875-.62451171875-1.21136474609375-.936279296875-2.60272216796875-.936279296875-4.1722412109375s.311767578125-2.96002197265625.936279296875-4.173095703125c.623779296875-1.2122802734375,1.49755859375-2.15728759765625,2.62158203125-2.8349609375,1.123291015625-.67767333984375,2.398193359375-1.01690673828125,3.824462890625-1.01690673828125,1.49853515625,0,2.81689453125.34783935546875,3.958984375,1.04351806640625,1.14111328125.69561767578125,2.032958984375,1.640625,2.6748046875,2.83489990234375.642578125,1.19598388671875.962890625,2.5770263671875.962890625,4.14654541015625s-.3203125,2.96087646484375-.962890625,4.1722412109375Z"/>
    <polygon class="cls-1" points="276.708015657972282 25.546000682483282 248.354500032972282 25.546000682483282 248.354500032972282 32.768168651233282 258.465828157972282 32.768168651233282 258.465828157972282 65.401774608264532 266.757820345472282 65.401774608264532 266.757820345472282 32.768168651233282 276.708015657972282 32.768168651233282 276.708015657972282 25.546000682483282"/>
    <path class="cls-1" d="M291.311775423597282,35.871257030139532h-1.711669921875c-2.033203125,0-3.789306640625.43695068359375-5.26904296875,1.310791015625-1.12646484375.6649169921875-2.007080078125,1.79547119140625-2.64794921875,3.3792724609375v-4.3687744140625h-7.490478515625v29.209228515625h8.02490234375v-15.7286376953125c0-2.17437744140625.605712890625-3.85955810546875,1.81884765625-5.0546875,1.21240234375-1.19512939453125,2.7998046875-1.79229736328125,4.76171875-1.79229736328125h2.513671875v-6.95489501953125Z"/>
    <path class="cls-1" d="M311.057625032972282,36.887309276233282c-1.890869140625-.8909912109375-4.06591796875-1.33734130859375-6.526611328125-1.33734130859375-2.06884765625,0-3.977783203125.3212890625-5.724609375.96295166015625-1.747802734375.642578125-3.24609375,1.55157470703125-4.493408203125,2.72869873046875-1.249267578125,1.1771240234375-2.158203125,2.58648681640625-2.728759765625,4.22625732421875l6.41943359375,3.049072265625c.49951171875-1.28338623046875,1.292724609375-2.31744384765625,2.380859375-3.10223388671875,1.087158203125-.78472900390625,2.344970703125-1.1771240234375,3.771240234375-1.1771240234375,1.49853515625,0,2.683349609375.3743896484375,3.55810546875,1.1231689453125.873779296875.748779296875,1.310791015625,1.6766357421875,1.310791015625,2.78179931640625v.78082275390625l-8.078125,1.3052978515625c-2.319091796875.35723876953125-4.253662109375.96295166015625-5.804443359375,1.8197021484375-1.551513671875.85589599609375-2.7021484375,1.9173583984375-3.45068359375,3.1827392578125-.7490234375,1.2662353515625-1.123291015625,2.7200927734375-1.123291015625,4.35986328125,0,1.74774169921875.409423828125,3.255615234375,1.230224609375,4.52099609375.81982421875,1.2662353515625,1.9970703125,2.23858642578125,3.53076171875,2.9154052734375,1.533447265625.67681884765625,3.352294921875,1.01611328125,5.456298828125,1.01611328125,1.569580078125,0,2.99609375-.20562744140625,4.2802734375-.61517333984375,1.2841796875-.40948486328125,2.442626953125-1.0340576171875,3.477294921875-1.8719482421875.35400390625-.2867431640625.68310546875-.6358642578125,1.01611328125-.97503662109375v2.8204345703125h7.48974609375v-19.25921630859375c0-2.1041259765625-.526123046875-3.94952392578125-1.578125-5.53704833984375-1.05224609375-1.586669921875-2.523193359375-2.82635498046875-4.4130859375-3.71820068359375ZM309.024666048597282,53.739176952014532c0,1.1771240234375-.27685546875,2.256591796875-.829345703125,3.2366943359375-.553466796875.9818115234375-1.328857421875,1.75714111328125-2.326904296875,2.326904296875-.9990234375.5714111328125-2.158935546875.8558349609375-3.4775390625.8558349609375-.998779296875,0-1.837646484375-.2484130859375-2.514404296875-.748779296875-.677734375-.49859619140625-1.016845703125-1.19427490234375-1.016845703125-2.08612060546875,0-.96295166015625.30322265625-1.70318603515625.90966796875-2.21978759765625.605712890625-.5166015625,1.479736328125-.88330078125,2.62158203125-1.09747314453125l6.6337890625-1.18450927734375v.917236328125Z"/>
    <path class="cls-1" d="M330.439460970472282,43.789103709827032c1.087158203125-.67767333984375,2.32666015625-1.01690673828125,3.71728515625-1.01690673828125,1.5693359375,0,2.951416015625.4283447265625,4.146484375,1.28424072265625,1.1943359375.8558349609375,2.040771484375,2.0150146484375,2.541015625,3.4774169921875l6.955078125-2.9959716796875c-.571533203125-1.81878662109375-1.5166015625-3.39691162109375-2.8359375-4.7342529296875-1.320068359375-1.33819580078125-2.90673828125-2.380859375-4.7607421875-3.129638671875-1.854736328125-.7496337890625-3.87060546875-1.1240234375-6.0458984375-1.1240234375-2.9248046875,0-5.5634765625.6605224609375-7.9169921875,1.97991943359375-2.3544921875,1.3193359375-4.209228515625,3.129638671875-5.563720703125,5.429931640625-1.356201171875,2.30029296875-2.032958984375,4.89447021484375-2.032958984375,7.78338623046875,0,2.88885498046875.686279296875,5.4932861328125,2.0595703125,7.810791015625,1.37255859375,2.31915283203125,3.227294921875,4.14654541015625,5.5634765625,5.48388671875,2.33544921875,1.33734130859375,4.9658203125,2.005615234375,7.890625,2.005615234375,2.211181640625,0,4.244140625-.38385009765625,6.09912109375-1.14971923828125,1.853759765625-.76678466796875,3.44140625-1.82745361328125,4.76171875-3.18365478515625,1.318359375-1.35443115234375,2.24609375-2.88885498046875,2.78173828125-4.6005859375l-6.955078125-3.04913330078125c-.500244140625,1.46246337890625-1.33740234375,2.62164306640625-2.514404296875,3.47747802734375-1.17724609375.85589599609375-2.567626953125,1.28338623046875-4.173095703125,1.28338623046875-1.390625,0-2.630126953125-.33843994140625-3.71728515625-1.01605224609375-1.0888671875-.67681884765625-1.94482421875-1.6226806640625-2.568603515625-2.8358154296875-.62451171875-1.21136474609375-.936279296875-2.60272216796875-.936279296875-4.1722412109375s.311767578125-2.96002197265625.936279296875-4.173095703125c.623779296875-1.2122802734375,1.479736328125-2.15728759765625,2.568603515625-2.8349609375Z"/>
    <polygon class="cls-1" points="377.210701204847282 36.192546092639532 367.313728548597282 36.192546092639532 357.417000032972282 46.704997264514532 357.417000032972282 24.904277049670782 349.391853548597282 24.904277049670782 349.391853548597282 65.401774608264532 357.417000032972282 65.401774608264532 357.417000032972282 56.460978709827032 360.642830111097282 52.945170604358282 368.062507845472282 65.401774608264532 377.157478548597282 65.401774608264532 366.618171907972282 47.961405955920782 377.210701204847282 36.192546092639532"/>
  </g>
  <g>
    <path class="cls-2" d="M340.612800814222282,71.269694530139532c-.84716796875-.38482666015625-1.82568359375-.57916259765625-2.90673828125-.57916259765625h-6.158203125v15.7435302734375h4.05908203125v-5.34710693359375h2.09912109375c1.072509765625,0,2.045166015625-.1982421875,2.89111328125-.58984375.867431640625-.40032958984375,1.562744140625-.99688720703125,2.068359375-1.7733154296875.506591796875-.77838134765625.763916015625-1.7288818359375.763916015625-2.82440185546875,0-1.1197509765625-.25341796875-2.082763671875-.752197265625-2.86114501953125-.4990234375-.77838134765625-1.193359375-1.3740234375-2.064453125-1.7685546875ZM339.171150423597282,76.697062694202032c-.134521484375.22723388671875-.314208984375.40032958984375-.55224609375.5289306640625-.24267578125.13153076171875-.54345703125.1982421875-.893310546875.1982421875h-2.11865234375v-3.07000732421875h2.11865234375c.349853515625,0,.650634765625.06671142578125.892333984375.197265625.239013671875.12957763671875.419677734375.3026123046875.55224609375.52886962890625.13427734375.22821044921875.198974609375.49603271484375.198974609375.81903076171875,0,.30938720703125-.064697265625.5704345703125-.197998046875.79766845703125Z"/>
    <path class="cls-2" d="M357.589119173597282,78.734416209827032c.514404296875-.7841796875.7744140625-1.738525390625.7744140625-2.83502197265625,0-1.12066650390625-.252197265625-2.083740234375-.751220703125-2.86114501953125-.498046875-.77740478515625-1.192138671875-1.373046875-2.064453125-1.7685546875-.846923828125-.38482666015625-1.825439453125-.57916259765625-2.907470703125-.57916259765625h-6.137939453125v15.7435302734375h4.05908203125v-5.34710693359375h1.392333984375l2.99072265625,5.34710693359375h4.590087890625l-3.53515625-6.1767578125c.64208984375-.3800048828125,1.17578125-.8905029296875,1.589599609375-1.52288818359375ZM354.104255892347282,76.698039256702032c-.132568359375.22625732421875-.312255859375.39935302734375-.552001953125.5279541015625-.24072265625.13153076171875-.54150390625.1982421875-.8916015625.1982421875h-2.09912109375v-3.07000732421875h2.09912109375c.35009765625,0,.65087890625.06671142578125.892578125.197265625.23779296875.12957763671875.41845703125.3026123046875.552001953125.52984619140625.134521484375.22723388671875.19921875.49505615234375.19921875.81805419921875,0,.30938720703125-.064697265625.5704345703125-.2001953125.79864501953125Z"/>
    <path class="cls-2" d="M377.375496126722282,75.350138866077032c-.4140625-.98046875-1.00390625-1.8487548828125-1.755126953125-2.57879638671875-.749267578125-.72808837890625-1.638916015625-1.30242919921875-2.6455078125-1.70758056640625-2.00927734375-.810302734375-4.578369140625-.810302734375-6.587646484375,0-1.006591796875.4051513671875-1.896240234375.9794921875-2.6455078125,1.70758056640625-.75146484375.73199462890625-1.34228515625,1.59930419921875-1.7548828125,2.57879638671875-.4130859375.98046875-.622802734375,2.0576171875-.622802734375,3.20245361328125,0,1.1448974609375.213623046875,2.2230224609375.63427734375,3.20440673828125.419677734375.9794921875,1.012451171875,1.8497314453125,1.76171875,2.5845947265625.748291015625.73583984375,1.638916015625,1.3140869140625,2.6474609375,1.72021484375,1.004638671875.40509033203125,2.10693359375.610107421875,3.274169921875.610107421875,1.16796875,0,2.269287109375-.20501708984375,3.27392578125-.610107421875,1.006591796875-.4051513671875,1.89697265625-.984375,2.6474609375-1.72021484375.748291015625-.73583984375,1.341064453125-1.6051025390625,1.76171875-2.5836181640625.419677734375-.98046875.63330078125-2.0595703125.63330078125-3.20538330078125,0-1.14483642578125-.2099609375-2.22198486328125-.62255859375-3.20245361328125ZM373.616951204847282,80.329814159045782c-.208984375.52508544921875-.511474609375.98529052734375-.896484375,1.36529541015625-.3876953125.3819580078125-.843994140625.68267822265625-1.357421875.8953857421875-1.023193359375.42547607421875-2.341064453125.42352294921875-3.364013671875,0-.513427734375-.21270751953125-.9697265625-.513427734375-1.3564453125-.8953857421875-.385009765625-.3790283203125-.6865234375-.83831787109375-.8984375-1.36627197265625-.212646484375-.53082275390625-.320068359375-1.12835693359375-.320068359375-1.7762451171875,0-.6478271484375.107421875-1.24151611328125.320068359375-1.76458740234375.2119140625-.52313232421875.514404296875-.984375.901123046875-1.37115478515625.385986328125-.38580322265625.84033203125-.685546875,1.347900390625-.8905029296875.514404296875-.20599365234375,1.0830078125-.3104248046875,1.6884765625-.3104248046875.605224609375,0,1.1728515625.10443115234375,1.68603515625.3104248046875.5087890625.2049560546875.963134765625.50469970703125,1.35009765625.8905029296875.3876953125.38873291015625.690185546875.8499755859375.900146484375,1.37115478515625.212646484375.5250244140625.321044921875,1.11871337890625.321044921875,1.76458740234375,0,.64593505859375-.1083984375,1.24346923828125-.322021484375,1.7772216796875Z"/>
  </g>
</svg>