<svg xmlns="http://www.w3.org/2000/svg" id="Layer_1" width="377.998" height="94.957" data-name="Layer 1" viewBox="0 0 377.998 94.957"><defs><style>.cls-1{fill:#fff}.cls-2{fill:#00ff6a}</style></defs><path d="M32.48 94.957a8.98 8.98 0 0 1-8.158-5.13l-4.255-8.85a4.5 4.5 0 0 1 8.112-3.9l4.255 8.85 22.422-46.476c1.932-6.143-1.76-10.055-5.508-11.537-3.753-1.483-9.128-1.152-11.924 4.663l-10.7 22.254c-1.793 3.728-5.477 6.044-9.614 6.044s-7.821-2.317-9.614-6.046L1.892 43.173a5 5 0 0 1-.217-.537C-1.635 32.628.008 21.988 6.182 13.444S21.94 0 32.48 0a4.5 4.5 0 1 1 0 9c-7.615 0-14.541 3.541-19.002 9.715-4.407 6.1-5.62 13.676-3.343 20.83l5.472 11.385c.396.822 1.112.945 1.503.945s1.107-.123 1.502-.945l10.7-22.254c5.097-10.6 15.673-12.165 23.344-9.132 7.666 3.03 14.31 11.398 10.784 22.611l-.154.478q-.091.277-.218.54l-22.43 46.654a8.98 8.98 0 0 1-8.159 5.13" class="cls-2"/><path d="m105.952 42.986-7.65-2.46q-1.82-.59-2.729-1.632a3.6 3.6 0 0 1-.908-2.434q0-1.283.694-2.274.696-.99 1.98-1.525 1.283-.533 2.942-.534 2.889 0 5.136 1.578t3.37 4.36l6.741-3.05q-1.125-3.156-3.343-5.403-2.22-2.247-5.27-3.477t-6.634-1.23q-4.065 0-7.196 1.497-3.129 1.499-4.867 4.173-1.739 2.676-1.738 6.205-.001 4.014 2.407 6.875 2.406 2.863 7.168 4.413l7.81 2.568q1.82.59 2.676 1.58.855.989.855 2.379 0 1.285-.695 2.22-.696.937-1.926 1.472t-2.942.534q-3.21 0-5.858-1.872-2.649-1.872-4.146-5.136l-6.794 3.05q1.176 3.424 3.557 5.938 2.381 2.515 5.67 3.879t7.036 1.363q4.226 0 7.409-1.524t5.002-4.226q1.819-2.7 1.82-6.18 0-4.01-2.382-6.793-2.38-2.781-7.195-4.334" class="cls-1"/><path d="m154.607 36.193-5.682 16.96-6.302-16.96h-6.954l-6.35 16.975-5.687-16.975h-8.292l10.057 29.209h6.955l6.79-18.727 6.744 18.727h6.956l10.11-29.21zm31.611 3.53q-1.846-1.98-4.52-3.076-2.676-1.096-6.152-1.097-4.174 0-7.49 1.98-3.317 1.98-5.27 5.403-1.952 3.424-1.952 7.81 0 4.227 1.872 7.704 1.873 3.478 5.296 5.537 3.423 2.06 8.078 2.06 2.996 0 5.51-.883t4.36-2.488q1.845-1.604 2.703-3.745l-6.42-3.049a6.16 6.16 0 0 1-2.381 2.355q-1.525.855-3.665.855-2.355 0-4.012-1.043-1.659-1.043-2.461-2.916a7.8 7.8 0 0 1-.553-2.087h20.455q.213-.586.293-1.417.081-.828.081-1.685 0-3.048-.963-5.644a13.55 13.55 0 0 0-2.81-4.574m-16.845 7.436c.092-.412.201-.808.34-1.177q.75-1.979 2.248-2.996 1.497-1.015 3.585-1.016 2.138 0 3.61 1.043 1.47 1.043 2.06 2.836c.136.414.21.856.256 1.31zm46.43-7.436q-1.846-1.98-4.52-3.076-2.676-1.096-6.153-1.097-4.173 0-7.49 1.98t-5.269 5.403-1.953 7.81q0 4.227 1.873 7.704 1.872 3.478 5.296 5.537 3.423 2.06 8.078 2.06 2.996 0 5.51-.883t4.36-2.488q1.845-1.604 2.702-3.745l-6.42-3.049a6.16 6.16 0 0 1-2.38 2.355q-1.526.855-3.665.855-2.355 0-4.012-1.043-1.659-1.043-2.461-2.916a7.8 7.8 0 0 1-.553-2.087h20.454q.213-.586.294-1.417.08-.828.08-1.685 0-3.048-.962-5.644a13.55 13.55 0 0 0-2.81-4.574m-16.846 7.436c.092-.412.202-.808.342-1.177q.748-1.979 2.247-2.996 1.497-1.015 3.584-1.016 2.14 0 3.611 1.043 1.47 1.043 2.06 2.836c.136.414.21.856.256 1.31zm46.377-9.576q-3.369-2.033-7.542-2.033-3.21 0-5.699 1.204a9.8 9.8 0 0 0-3.236 2.483v-3.044h-7.49V76.1h8.025V63.12a10 10 0 0 0 2.808 1.826q2.541 1.096 5.537 1.096 4.28.001 7.651-2.033 3.369-2.03 5.323-5.51 1.952-3.476 1.952-7.703 0-4.28-1.979-7.73t-5.35-5.484m-1.926 17.386q-.962 1.822-2.675 2.836-1.712 1.017-3.959 1.016-2.138 0-3.824-1.016-1.686-1.015-2.622-2.836-.936-1.817-.936-4.172c0-2.355.312-2.96.936-4.173q.936-1.818 2.622-2.835t3.824-1.017q2.247 0 3.96 1.044a7.3 7.3 0 0 1 2.674 2.835q.964 1.793.963 4.146c0 2.353-.32 2.961-.963 4.172" class="cls-1"/><path d="M276.708 25.546h-28.353v7.222h10.11v32.634h8.293V32.768h9.95z" class="cls-1"/><path d="M291.312 35.871H289.6q-3.05 0-5.269 1.311c-1.126.665-2.007 1.796-2.648 3.38v-4.37h-7.49v29.21h8.025V49.673q0-3.262 1.818-5.055 1.82-1.792 4.762-1.792h2.514zm19.746 1.016q-2.836-1.336-6.527-1.337-3.104 0-5.725.963t-4.493 2.729a10.4 10.4 0 0 0-2.729 4.226l6.42 3.049q.749-1.924 2.38-3.102 1.633-1.177 3.772-1.177 2.246 0 3.558 1.123 1.31 1.123 1.31 2.782v.78l-8.077 1.306q-3.48.535-5.805 1.82-2.327 1.284-3.45 3.182-1.125 1.9-1.124 4.36 0 2.623 1.23 4.521 1.23 1.9 3.531 2.915 2.3 1.016 5.456 1.016 2.355 0 4.28-.615a10.6 10.6 0 0 0 3.478-1.872c.354-.286.683-.635 1.016-.975v2.82h7.49V46.144q0-3.157-1.578-5.537t-4.413-3.719m-2.033 16.852q0 1.766-.83 3.237a6.07 6.07 0 0 1-2.327 2.327q-1.5.856-3.477.856-1.499 0-2.515-.75-1.016-.747-1.016-2.085 0-1.445.91-2.22.908-.776 2.62-1.098l6.635-1.184zm21.415-9.95q1.63-1.018 3.717-1.018 2.354 0 4.146 1.284t2.541 3.478l6.955-2.996a11.6 11.6 0 0 0-2.836-4.734q-1.98-2.008-4.76-3.13-2.783-1.125-6.046-1.124-4.388 0-7.917 1.98-3.533 1.98-5.564 5.43-2.034 3.45-2.033 7.783 0 4.335 2.06 7.811a15.05 15.05 0 0 0 5.563 5.484q3.504 2.005 7.89 2.005 3.318 0 6.1-1.15 2.78-1.149 4.762-3.183 1.978-2.032 2.781-4.6l-6.955-3.05q-.75 2.194-2.514 3.478-1.765 1.284-4.173 1.283-2.086 0-3.718-1.016-1.632-1.015-2.568-2.836-.937-1.817-.936-4.172c0-2.355.311-2.96.936-4.173q.936-1.818 2.568-2.835m46.771-7.596h-9.896l-9.897 10.512v-21.8h-8.025v40.497h8.025V56.46l3.226-3.516 7.42 12.457h9.094l-10.539-17.44z" class="cls-1"/><path d="M340.613 71.27c-.847-.385-1.826-.58-2.907-.58h-6.158v15.744h4.059v-5.347h2.1c1.072 0 2.044-.198 2.89-.59a4.85 4.85 0 0 0 2.069-1.773c.506-.779.763-1.73.763-2.825 0-1.12-.253-2.082-.752-2.86a4.7 4.7 0 0 0-2.064-1.77m-1.442 5.427c-.134.227-.314.4-.552.529-.243.132-.544.198-.893.198h-2.12v-3.07h2.12q.527.001.892.197c.239.13.42.303.552.53.134.228.2.495.2.818 0 .31-.066.57-.199.798m18.419 2.038c.514-.784.774-1.738.774-2.835 0-1.12-.253-2.083-.752-2.86a4.7 4.7 0 0 0-2.064-1.77c-.847-.384-1.826-.578-2.908-.578h-6.138v15.743h4.06v-5.347h1.392l2.99 5.347h4.59L356 80.257a4.8 4.8 0 0 0 1.59-1.523m-3.486-2.036c-.132.226-.312.4-.552.528-.24.132-.541.198-.891.198h-2.1v-3.07h2.1q.527.001.892.197c.238.13.419.303.552.53.135.228.2.495.2.818 0 .31-.065.57-.2.799m23.27-1.348a7.8 7.8 0 0 0-1.755-2.579 8.1 8.1 0 0 0-2.645-1.707c-2.01-.81-4.579-.81-6.588 0a8.1 8.1 0 0 0-2.645 1.707 7.8 7.8 0 0 0-1.755 2.58 8.2 8.2 0 0 0-.623 3.202c0 1.144.214 2.223.634 3.204.42.98 1.013 1.85 1.762 2.585a8 8 0 0 0 2.647 1.72 8.7 8.7 0 0 0 3.275.61 8.7 8.7 0 0 0 3.274-.61 8 8 0 0 0 2.647-1.72 8.1 8.1 0 0 0 1.762-2.584 8.1 8.1 0 0 0 .633-3.205c0-1.145-.21-2.222-.623-3.203m-3.758 4.98a4 4 0 0 1-.897 1.365 4.2 4.2 0 0 1-1.357.895c-1.023.426-2.341.424-3.364 0a4.2 4.2 0 0 1-1.356-.895 4 4 0 0 1-.899-1.366 4.8 4.8 0 0 1-.32-1.776c0-.648.108-1.242.32-1.765s.515-.984.901-1.371a4 4 0 0 1 1.348-.89 4.5 4.5 0 0 1 1.689-.311c.605 0 1.173.104 1.686.31a4.04 4.04 0 0 1 2.25 2.262c.213.525.321 1.119.321 1.765s-.108 1.243-.322 1.777" class="cls-2"/></svg>