<?xml version="1.0" encoding="UTF-8"?>
<svg id="Layer_1" data-name="Layer 1" xmlns="http://www.w3.org/2000/svg" width="50" height="50" viewBox="0 0 50 50">
  <defs>
    <style>
      .cls-1 {
        fill: #050510;
      }

      .cls-2 {
        fill: #00ff6a;
      }
    </style>
  </defs>
  <rect class="cls-1" width="50" height="50"/>
  <path class="cls-2" d="M25.114578038575928,44.831068865024463h-.000203947805858c-1.46658867300539-.000203947806767-2.772262527071689-.821297814795798-3.407355994981117-2.143083545535774l-1.777201181555938-3.696350036094373c-.449704912248308-.935508586160722-.055881698846861-2.058649153847909.879626887313862-2.508354066096217.935712533964761-.449908860055075,2.058649153847-.055881698845951,2.508354066096217.879626887313862l1.777201181555938,3.69655398390023,9.365691147513644-19.412567967095129c.806613572763126-2.565867347390849-.735231840659253-4.199897169129144-2.300939147385179-4.818674812557219-1.567338889173698-.619389486848377-3.812600285519693-.481316822179906-4.980405422723379,1.947497599571761l-4.469312220866414,9.295125206635021c-.748896343662636,1.557141498873534-2.287478592188563,2.52466989057757-4.015324404690546,2.52466989057757h-.000407895613534c-1.72804976030784-.000203947806767-3.266632008833767-.967732339509894-4.015324404690546-2.525281733995143l-2.340505021751596-4.868642025030567c-.034875074827141-.072809366744877-.065263297921774-.147658211550151-.090552825868144-.224138638803197-1.382358229124293-4.180114231945481-.69607386190637-8.624340872673201,1.882642197262612-12.193223530012801,2.578512111363125-3.568678709533742,6.582007543306645-5.615294942826949,10.984016988189978-5.615294942826949,1.03809433258175,0,1.879582980172927.841488647590268,1.879582980172927,1.879582980172927s-.841488647591177,1.879582980172927-1.879582980172927,1.879582980172927c-3.180769982505808,0-6.073769610733507,1.479029489171808-7.937036766425081,4.05774554834079-1.84083289703085,2.547715992656777-2.347235299350359,5.712374098487089-1.396430627739392,8.700821299927156l2.285847009741701,4.754839149276449c.165197722866651.343448105318203.464185206474212.394842952433464.627547399088144.394842952433464h.000203947805858c.163362192612112,0,.462349676219674-.051394847115262.627343451280467-.394639004625787l4.469312220866414-9.295125206635021c2.128807199114817-4.427298972828794,6.546112729448396-5.081155638891687,9.750336709645126-3.814435815774232,3.201776606524618,1.265496136281399,5.976894402880134,4.760753635651781,4.504391243499413,9.444415000633853l-.064447506698343.19946095427531c-.025289527945461.077092270671528-.055881698846861.152349011088518-.09096072147986.225566273445111l-9.368342468991614,19.486601020676062c-.635501363522053,1.321785730739975-1.941175217587443,2.142879597729916-3.407763890592832,2.142879597729916Z"/>
</svg>